<svg id="Слой_1" data-name="Слой 1" xmlns="http://www.w3.org/2000/svg" viewBox="0 0 853.3 123.7"><defs><style>.cls-1{fill:#77a9e5;}.cls-2{fill:#276ed6;}.cls-3{fill:#f4c7a8;}.cls-4{fill:#ea6d11;}</style></defs><title>logo</title><path class="cls-1" d="M288.25,457.64q15.06,0,23.5,5.86T320.19,481a18.51,18.51,0,0,1-3.13,10.58,18.93,18.93,0,0,1-9.11,7q7.68,1.64,11.51,7a21,21,0,0,1,3.84,12.48q0,12.25-8.09,18.54T292.3,543h-42V532.7l9.08-1.76V469.71L250.34,468V457.64h37.91Zm-11.72,35.74h12.3q6.86,0,10.55-2.81t3.69-8.2q0-5.92-3.72-8.73t-11.1-2.81H276.54Zm0,11.84v24.61H292.3q6.8,0,10.37-3t3.57-8.76q0-6.27-3-9.58t-9.61-3.31Z" transform="translate(-250.34 -451.55)"/><path class="cls-1" d="M461.63,461.86V451.55h26.19v53h3.81l9.84-13.89-5.57-.76V479.56h31.17v10.31l-7.5,1.7-11.43,15.7,16,24.08,6.5,1.35V543h-29.3V532.7l3.52-.59-9.73-15.7h-7.32v14.53l7.38,1.76V543h-32.7V532.7l8.26-1.76V463.62Z" transform="translate(-250.34 -451.55)"/><path class="cls-2" d="M295.25,463.64q15.06,0,23.5,5.86T327.19,487a18.51,18.51,0,0,1-3.13,10.58,18.93,18.93,0,0,1-9.11,7q7.68,1.64,11.51,7a21,21,0,0,1,3.84,12.48q0,12.25-8.09,18.54T299.3,549h-42V538.7l9.08-1.76V475.71L257.34,474V463.64h37.91Zm-11.72,35.74h12.3q6.86,0,10.55-2.81t3.69-8.2q0-5.92-3.72-8.73t-11.1-2.81H283.54Zm0,11.84v24.61H299.3q6.8,0,10.37-3t3.57-8.76q0-6.27-3-9.58t-9.61-3.31Z" transform="translate(-250.34 -451.55)"/><path class="cls-2" d="M468.63,467.86V457.55h26.19v53h3.81l9.84-13.89-5.57-.76V485.56h31.17v10.31l-7.5,1.7-11.43,15.7,16,24.08,6.5,1.35V549h-29.3V538.7l3.52-.59-9.73-15.7h-7.32v14.53l7.38,1.76V549h-32.7V538.7l8.26-1.76V469.62Z" transform="translate(-250.34 -451.55)"/><g id="Слой_2" data-name="Слой 2"><path class="cls-1" d="M399.22,502.93q0-14.18,7.94-23.23t21.94-9.05q14.06,0,22,9T459,502.93v1.23q0,14.3-7.94,23.29t-21.88,9q-14.12,0-22.06-9t-7.94-23.29Zm17.11,1.23q0,8.67,3,13.92t9.84,5.24q6.62,0,9.7-5.27T442,504.17v-1.23q0-8.44-3.11-13.77t-9.79-5.33q-6.68,0-9.73,5.33t-3,13.77Z" transform="translate(-250.34 -451.55)"/><path class="cls-2" d="M406.22,508.93q0-14.18,7.94-23.23t21.94-9.05q14.06,0,22,9T466,508.93v1.23q0,14.3-7.94,23.29t-21.88,9q-14.12,0-22.06-9t-7.94-23.29Zm17.11,1.23q0,8.67,3,13.92t9.84,5.24q6.62,0,9.7-5.27T449,510.17v-1.23q0-8.44-3.11-13.77t-9.79-5.33q-6.68,0-9.73,5.33t-3,13.77Z" transform="translate(-250.34 -451.55)"/><path class="cls-1" d="M332,524.93q0-14.18,7.94-23.23t21.94-9.05q14.06,0,22,9t7.94,23.26v1.23q0,14.3-7.94,23.29t-21.88,9q-14.12,0-22.06-9T332,526.17Zm17.11,1.23q0,8.67,3,13.92t9.84,5.24q6.62,0,9.7-5.27t3.08-13.89v-1.23q0-8.44-3.11-13.77t-9.79-5.33q-6.68,0-9.73,5.33t-3,13.77Z" transform="translate(-250.34 -451.55)"/><path class="cls-2" d="M339,530.93q0-14.18,7.94-23.23t21.94-9.05q14.06,0,22,9t7.94,23.26v1.23q0,14.3-7.94,23.29t-21.88,9q-14.12,0-22.06-9T339,532.17Zm17.11,1.23q0,8.67,3,13.92t9.84,5.24q6.62,0,9.7-5.27t3.08-13.89v-1.23q0-8.44-3.11-13.77t-9.79-5.33q-6.68,0-9.73,5.33t-3,13.77Z" transform="translate(-250.34 -451.55)"/></g><path class="cls-3" d="M600.65,507.14H571.76v24.38H599.3l.76-10.2h13v23.32h-67.5V534.39l9.08-1.76V471.4l-9.08-1.76V459.33h67.38v23.38H599.82l-.76-10.2h-27.3V494h28.89Z" transform="translate(-250.34 -451.55)"/><path class="cls-3" d="M620.8,534.39l5.92-.94,17.23-20.86-16.64-20-5.92-1V481.25h28.54v9.9l-5.8.7L653.73,504l9.43-12.19-5.92-.7v-9.9H685.9v10.31l-5.74,1-16.29,20L681,533.45l6,.94v10.25H658V534.8l5.8-.7L654,521.32l-10,12.83,5.1.64v9.84H620.8Z" transform="translate(-250.34 -451.55)"/><path class="cls-3" d="M721,532.75a10.08,10.08,0,0,0,7.32-2.67,9.45,9.45,0,0,0,2.75-7.12h15.47l.18.35a19.78,19.78,0,0,1-7.21,16.08q-7.44,6.47-18.52,6.47-14.18,0-21.86-9t-7.68-23v-1.76q0-14,7.88-23t22.47-9a39,39,0,0,1,13.77,2.29,27.22,27.22,0,0,1,10.14,6.45l.23,16.93H732.07l-2.81-9.9a10.84,10.84,0,0,0-3.16-1.85,11.7,11.7,0,0,0-4.28-.73q-7.27,0-10.25,5.27t-3,13.59v1.76q0,8.5,2.75,13.68T721,532.75Z" transform="translate(-250.34 -451.55)"/><path class="cls-3" d="M753.52,534.39l8.26-1.76V465.31l-9.14-1.76V453.24h26.19v36.09a21.57,21.57,0,0,1,7.32-6.83,19.31,19.31,0,0,1,9.61-2.43q10,0,15.62,6.59T817,507v25.61l8.2,1.76v10.25h-32.7V534.39l7.38-1.76V506.91q0-7.38-2.61-10.46t-7.76-3.08a14.19,14.19,0,0,0-6.24,1.29,12.46,12.46,0,0,0-4.48,3.63v34.34l7.38,1.76v10.25h-32.7Z" transform="translate(-250.34 -451.55)"/><path class="cls-3" d="M871.11,544.64a30.94,30.94,0,0,1-1.23-3.25,25.57,25.57,0,0,1-.82-3.37,23.55,23.55,0,0,1-7.41,5.68,22.17,22.17,0,0,1-10,2.17q-9.32,0-14.79-5.07T831.39,527a15.69,15.69,0,0,1,7.15-13.77q7.15-4.86,21-4.86h8.73v-6.21a9.34,9.34,0,0,0-2.64-7.09q-2.64-2.52-7.79-2.52a18.47,18.47,0,0,0-5.21.67,13.68,13.68,0,0,0-3.69,1.61l-1.11,6.8H834.9l.06-14.06a48,48,0,0,1,10.75-5.33,39,39,0,0,1,13.21-2.17q11.78,0,19.13,5.77t7.35,16.44v26.19q0,1.47,0,2.75a19.49,19.49,0,0,0,.21,2.46l5.21.7v10.25Zm-14.82-11.43a14.83,14.83,0,0,0,7-1.67,13.57,13.57,0,0,0,4.92-4.19v-9.67h-8.73q-5.45,0-8.26,2.55a8,8,0,0,0-2.81,6.12,6.33,6.33,0,0,0,2.08,5A8.48,8.48,0,0,0,856.29,533.22Z" transform="translate(-250.34 -451.55)"/><path class="cls-3" d="M895.72,534.39l8.2-1.76V493.32l-9.08-1.76V481.25h25l.76,9.08a23.19,23.19,0,0,1,7.79-7.56,20.23,20.23,0,0,1,10.37-2.7q9.61,0,15,6T959.18,505v27.6l8.2,1.76v10.25H934.69V534.39l7.32-1.76V505.09q0-6.39-2.58-9.05t-7.79-2.67a13.21,13.21,0,0,0-6.09,1.38,12.53,12.53,0,0,0-4.51,3.9v34l6.91,1.76v10.25H895.72Z" transform="translate(-250.34 -451.55)"/><path class="cls-3" d="M973.3,513.47q0-15,6.53-24.2t18.31-9.2a18.18,18.18,0,0,1,9.37,2.37,20.93,20.93,0,0,1,6.91,6.77l1.23-8h14.88v61.52q0,12.54-7.88,20T1001,570.25a43,43,0,0,1-10.2-1.32,47.34,47.34,0,0,1-10-3.6l3.16-12a54.17,54.17,0,0,0,8.2,2.78,35.64,35.64,0,0,0,8.67,1q6.27,0,9.38-3.81t3.11-10.61v-4.16a19.14,19.14,0,0,1-6.62,5.45,19.52,19.52,0,0,1-8.73,1.88q-11.66,0-18.19-8.58T973.3,514.7Zm17.11,1.23q0,8.32,2.81,13.1t9.14,4.78a14.12,14.12,0,0,0,6.65-1.44,11,11,0,0,0,4.37-4.19V499.41A11.81,11.81,0,0,0,1009,495a12.8,12.8,0,0,0-6.53-1.58,9.66,9.66,0,0,0-9.17,5.57q-2.9,5.57-2.9,14.53Z" transform="translate(-250.34 -451.55)"/><path class="cls-3" d="M1071.15,545.88q-13.71,0-21.91-8.79t-8.2-22.32v-2.34q0-14.12,7.76-23.26t20.83-9.08q12.83,0,19.92,7.73t7.09,20.92V518h-37.85l-.12.35a16.55,16.55,0,0,0,4.19,10.31q3.72,4,10.11,4a32.92,32.92,0,0,0,9.43-1.14,43.36,43.36,0,0,0,8.2-3.6l4.63,10.55a33.68,33.68,0,0,1-10.17,5.21A43.28,43.28,0,0,1,1071.15,545.88Zm-1.52-52.62a8.91,8.91,0,0,0-7.5,3.63,18.92,18.92,0,0,0-3.4,9.55l.18.29h21v-1.52q0-5.45-2.55-8.7T1069.63,493.26Z" transform="translate(-250.34 -451.55)"/><path class="cls-4" d="M607.65,512.14H578.76v24.38H606.3l.76-10.2h13v23.32h-67.5V539.39l9.08-1.76V476.4l-9.08-1.76V464.33h67.38v23.38H606.82l-.76-10.2h-27.3V499h28.89Z" transform="translate(-250.34 -451.55)"/><path class="cls-4" d="M627.8,539.39l5.92-.94,17.23-20.86-16.64-20-5.92-1V486.25h28.54v9.9l-5.8.7L660.73,509l9.43-12.19-5.92-.7v-9.9H692.9v10.31l-5.74,1-16.29,20L688,538.45l6,.94v10.25H665V539.8l5.8-.7L661,526.32l-10,12.83,5.1.64v9.84H627.8Z" transform="translate(-250.34 -451.55)"/><path class="cls-4" d="M728,537.75a10.08,10.08,0,0,0,7.32-2.67,9.45,9.45,0,0,0,2.75-7.12h15.47l.18.35a19.78,19.78,0,0,1-7.21,16.08q-7.44,6.47-18.52,6.47-14.18,0-21.86-9t-7.68-23v-1.76q0-14,7.88-23t22.47-9a39,39,0,0,1,13.77,2.29,27.22,27.22,0,0,1,10.14,6.45l.23,16.93H739.07l-2.81-9.9a10.84,10.84,0,0,0-3.16-1.85,11.7,11.7,0,0,0-4.28-.73q-7.27,0-10.25,5.27t-3,13.59v1.76q0,8.5,2.75,13.68T728,537.75Z" transform="translate(-250.34 -451.55)"/><path class="cls-4" d="M760.52,539.39l8.26-1.76V470.31l-9.14-1.76V458.24h26.19v36.09a21.57,21.57,0,0,1,7.32-6.83,19.31,19.31,0,0,1,9.61-2.43q10,0,15.62,6.59T824,512v25.61l8.2,1.76v10.25h-32.7V539.39l7.38-1.76V511.91q0-7.38-2.61-10.46t-7.76-3.08a14.19,14.19,0,0,0-6.24,1.29,12.46,12.46,0,0,0-4.48,3.63v34.34l7.38,1.76v10.25h-32.7Z" transform="translate(-250.34 -451.55)"/><path class="cls-4" d="M878.11,549.64a30.94,30.94,0,0,1-1.23-3.25,25.57,25.57,0,0,1-.82-3.37,23.55,23.55,0,0,1-7.41,5.68,22.17,22.17,0,0,1-10,2.17q-9.32,0-14.79-5.07T838.39,532a15.69,15.69,0,0,1,7.15-13.77q7.15-4.86,21-4.86h8.73v-6.21a9.34,9.34,0,0,0-2.64-7.09q-2.64-2.52-7.79-2.52a18.47,18.47,0,0,0-5.21.67,13.68,13.68,0,0,0-3.69,1.61l-1.11,6.8H841.9l.06-14.06a48,48,0,0,1,10.75-5.33,39,39,0,0,1,13.21-2.17q11.78,0,19.13,5.77t7.35,16.44v26.19q0,1.47,0,2.75a19.49,19.49,0,0,0,.21,2.46l5.21.7v10.25Zm-14.82-11.43a14.83,14.83,0,0,0,7-1.67,13.57,13.57,0,0,0,4.92-4.19v-9.67h-8.73q-5.45,0-8.26,2.55a8,8,0,0,0-2.81,6.12,6.33,6.33,0,0,0,2.08,5A8.48,8.48,0,0,0,863.29,538.22Z" transform="translate(-250.34 -451.55)"/><path class="cls-4" d="M902.72,539.39l8.2-1.76V498.32l-9.08-1.76V486.25h25l.76,9.08a23.19,23.19,0,0,1,7.79-7.56,20.23,20.23,0,0,1,10.37-2.7q9.61,0,15,6T966.18,510v27.6l8.2,1.76v10.25H941.69V539.39l7.32-1.76V510.09q0-6.39-2.58-9.05t-7.79-2.67a13.21,13.21,0,0,0-6.09,1.38,12.53,12.53,0,0,0-4.51,3.9v34l6.91,1.76v10.25H902.72Z" transform="translate(-250.34 -451.55)"/><path class="cls-4" d="M980.3,518.47q0-15,6.53-24.2t18.31-9.2a18.18,18.18,0,0,1,9.38,2.37,20.93,20.93,0,0,1,6.91,6.77l1.23-8h14.88v61.52q0,12.54-7.88,20T1008,575.25a43,43,0,0,1-10.2-1.32,47.34,47.34,0,0,1-10-3.6l3.16-12a54.17,54.17,0,0,0,8.2,2.78,35.64,35.64,0,0,0,8.67,1q6.27,0,9.38-3.81t3.11-10.61v-4.16a19.14,19.14,0,0,1-6.62,5.45,19.52,19.52,0,0,1-8.73,1.88q-11.66,0-18.19-8.58T980.3,519.7Zm17.11,1.23q0,8.32,2.81,13.1t9.14,4.78a14.12,14.12,0,0,0,6.65-1.44,11,11,0,0,0,4.37-4.19V504.41A11.81,11.81,0,0,0,1016,500a12.8,12.8,0,0,0-6.53-1.58,9.66,9.66,0,0,0-9.17,5.57q-2.9,5.57-2.9,14.53Z" transform="translate(-250.34 -451.55)"/><path class="cls-4" d="M1078.15,550.88q-13.71,0-21.91-8.79t-8.2-22.32v-2.34q0-14.12,7.76-23.26t20.83-9.08q12.83,0,19.92,7.73t7.09,20.92V523h-37.85l-.12.35a16.55,16.55,0,0,0,4.19,10.31q3.72,4,10.11,4a32.92,32.92,0,0,0,9.43-1.14,43.36,43.36,0,0,0,8.2-3.6l4.63,10.55a33.68,33.68,0,0,1-10.17,5.21A43.28,43.28,0,0,1,1078.15,550.88Zm-1.52-52.62a8.91,8.91,0,0,0-7.5,3.63,18.92,18.92,0,0,0-3.4,9.55l.18.29h21v-1.52q0-5.45-2.55-8.7T1076.63,498.26Z" transform="translate(-250.34 -451.55)"/></svg>