<svg xmlns="http://www.w3.org/2000/svg" viewBox="0 0 912.73 146.65"><defs><style>.cls-1{fill:#fff;}.cls-2{fill:none;stroke:#fff;stroke-miterlimit:10;stroke-width:2px;}</style></defs><title>Ресурс 3</title><g id="Слой_2" data-name="Слой 2"><g id="Слой_3" data-name="Слой 3"><path class="cls-1" d="M59.2,18.89q19,0,29.59,7.38T99.41,48.33a23.31,23.31,0,0,1-3.95,13.32A23.84,23.84,0,0,1,84,70.47q9.67,2.07,14.5,8.85A26.41,26.41,0,0,1,103.32,95q0,15.42-10.18,23.35t-28.85,7.93H11.46V113.41l11.44-2.21V34.09L11.46,31.88v-13H59.2Zm-14.76,45h15.5q8.63,0,13.28-3.54T77.86,50q0-7.45-4.69-11t-14-3.54H44.44Zm0,14.9v31H64.29q8.56,0,13.06-3.73t4.5-11Q81.85,87.14,78,83T65.91,78.8Z"/><path class="cls-1" d="M116.82,104.44q0-17.86,10-29.26t27.63-11.4q17.71,0,27.71,11.36t10,29.29V106q0,18-10,29.33T154.6,146.65q-17.78,0-27.78-11.33t-10-29.33ZM138.37,106q0,10.92,3.84,17.52t12.4,6.6q8.34,0,12.21-6.64T170.69,106v-1.55q0-10.63-3.91-17.34t-12.32-6.71q-8.41,0-12.25,6.71t-3.84,17.34Z"/><path class="cls-1" d="M203,74.44q0-17.86,10-29.26t27.63-11.4q17.71,0,27.71,11.36t10,29.29V76q0,18-10,29.33t-27.56,11.33q-17.78,0-27.78-11.33T203,76ZM224.59,76q0,10.92,3.84,17.52t12.4,6.6q8.34,0,12.21-6.64T256.9,76V74.44q0-10.63-3.91-17.34t-12.32-6.71q-8.41,0-12.25,6.71t-3.84,17.34Z"/><path class="cls-1" d="M287,24.2v-13h33v66.7h4.8l12.4-17.49-7-1v-13h39.25v13l-9.44,2.14L345.56,81.39l20.14,30.33,8.19,1.7v12.91H337V113.41l4.43-.74L329.18,92.9H320v18.3l9.3,2.21v12.91H288.08V113.41l10.4-2.21V26.42Z"/><path class="cls-1" d="M498.4,46.86l-.44-.07-28.78,79.54H454.71L426.09,47.08l-.44.07,2.07,47.15v16.9l11.51,2.21v12.91H394.73V113.41l11.44-2.21V34.09l-11.44-2.21v-13h39.55l27.38,79.17h.44l27.6-79.17h39.7v13l-11.51,2.21V111.2l11.51,2.21v12.91H484.89V113.41l11.44-2.21V94.3Z"/><path class="cls-1" d="M589.93,126.32a39,39,0,0,1-1.55-4.1,32.27,32.27,0,0,1-1-4.24,29.65,29.65,0,0,1-9.33,7.16,27.93,27.93,0,0,1-12.58,2.73q-11.73,0-18.63-6.38t-6.9-17.38q0-11.21,9-17.34t26.42-6.12h11V72.83q0-5.75-3.32-8.93t-9.81-3.17a23.26,23.26,0,0,0-6.57.85,17.22,17.22,0,0,0-4.65,2l-1.4,8.56H544.33l.07-17.71a60.47,60.47,0,0,1,13.54-6.71A49.11,49.11,0,0,1,574.58,45q14.83,0,24.09,7.27T607.93,73v33q0,1.84,0,3.47a24.65,24.65,0,0,0,.26,3.1l6.57.89v12.91Zm-18.67-14.39a18.67,18.67,0,0,0,8.85-2.1,17.09,17.09,0,0,0,6.2-5.28V92.38h-11q-6.86,0-10.4,3.21a10,10,0,0,0-3.54,7.71,8,8,0,0,0,2.62,6.35A10.68,10.68,0,0,0,571.26,111.93Z"/><path class="cls-1" d="M625.23,113.41l10.33-2.21V61.69l-11.44-2.21v-13h31.51l1,11.66a25.13,25.13,0,0,1,7.23-9.67A16.16,16.16,0,0,1,674.08,45a26.49,26.49,0,0,1,3.58.26,22.15,22.15,0,0,1,3.14.63L678.5,65.52l-8.85-.22a15.1,15.1,0,0,0-7.82,1.84,11.92,11.92,0,0,0-4.72,5.24V111.2l10.33,2.21v12.91H625.23Z"/><path class="cls-1" d="M686.44,24.2v-13h33v66.7h4.8l12.4-17.49-7-1v-13h39.25v13l-9.44,2.14L745,81.39l20.14,30.33,8.19,1.7v12.91H736.46V113.41l4.43-.74L728.64,92.9h-9.22v18.3l9.3,2.21v12.91H687.54V113.41l10.4-2.21V26.42Z"/><path class="cls-1" d="M820.61,127.87q-17.27,0-27.6-11.07T782.69,88.69v-3q0-17.78,9.78-29.29T818.7,45q16.16,0,25.09,9.74t8.93,26.34V92.82H805l-.15.44a20.83,20.83,0,0,0,5.28,13q4.68,5.09,12.73,5.09a41.45,41.45,0,0,0,11.88-1.44,54.62,54.62,0,0,0,10.33-4.54l5.83,13.28a42.39,42.39,0,0,1-12.8,6.57A54.49,54.49,0,0,1,820.61,127.87ZM818.7,61.61a11.22,11.22,0,0,0-9.44,4.57q-3.47,4.58-4.28,12l.22.37h26.42V76.66q0-6.86-3.21-11T818.7,61.61Z"/><path class="cls-1" d="M896.21,26.93V46.49h14V61.61h-14v40.66q0,4.65,1.92,6.64a6.83,6.83,0,0,0,5.17,2,35.4,35.4,0,0,0,3.87-.18q1.66-.18,3.73-.63l1.84,15.57a51.78,51.78,0,0,1-7.16,1.66,49.79,49.79,0,0,1-7.67.55q-11.14,0-17.16-6.12t-6-19.41V61.61H863V46.49h11.73V26.93Z"/><path class="cls-2" d="M48.74,8.67q19,0,29.59,7.38T89,38.11A23.31,23.31,0,0,1,85,51.43a23.84,23.84,0,0,1-11.47,8.82Q83.2,62.32,88,69.1a26.41,26.41,0,0,1,4.83,15.72q0,15.42-10.18,23.35t-28.85,7.93H1V103.19L12.44,101V23.87L1,21.66v-13H48.74ZM34,53.68h15.5q8.63,0,13.28-3.54t4.65-10.33q0-7.45-4.69-11t-14-3.54H34Zm0,14.9v31H53.83q8.56,0,13.06-3.73t4.5-11q0-7.89-3.84-12.06t-12.1-4.17Z"/><path class="cls-2" d="M106.36,94.22q0-17.86,10-29.26T144,53.57q17.71,0,27.71,11.36t10,29.29v1.55q0,18-10,29.33t-27.56,11.33q-17.78,0-27.78-11.33t-10-29.33Zm21.55,1.55q0,10.92,3.84,17.52t12.4,6.6q8.34,0,12.21-6.64t3.87-17.49V94.22q0-10.63-3.91-17.34T144,70.17q-8.41,0-12.25,6.71t-3.84,17.34Z"/><path class="cls-2" d="M192.58,64.22q0-17.86,10-29.26t27.63-11.4q17.71,0,27.71,11.36t10,29.29v1.55q0,18-10,29.33t-27.56,11.33q-17.78,0-27.78-11.33t-10-29.33Zm21.55,1.55q0,10.92,3.84,17.52t12.4,6.6q8.34,0,12.21-6.64t3.87-17.49V64.22q0-10.63-3.91-17.34t-12.32-6.71q-8.41,0-12.25,6.71t-3.84,17.34Z"/><path class="cls-2" d="M276.51,14V1h33V67.7h4.8l12.4-17.49-7-1v-13h39.25v13l-9.44,2.14L335.1,71.17l20.14,30.33,8.19,1.7v12.91H326.54V103.19l4.43-.74L318.72,82.68H309.5V101l9.3,2.21v12.91H277.62V103.19L288,101V16.2Z"/><path class="cls-2" d="M487.94,36.64l-.44-.07-28.78,79.54H444.26L415.63,36.86l-.44.07,2.07,47.15V101l11.51,2.21v12.91H384.27V103.19L395.71,101V23.87l-11.44-2.21v-13h39.55l27.38,79.17h.44l27.6-79.17h39.7v13l-11.51,2.21V101l11.51,2.21v12.91H474.44V103.19L485.87,101V84.08Z"/><path class="cls-2" d="M579.47,116.11a39,39,0,0,1-1.55-4.1,32.27,32.27,0,0,1-1-4.24,29.65,29.65,0,0,1-9.33,7.16A27.93,27.93,0,0,1,555,117.66q-11.73,0-18.63-6.38t-6.9-17.38q0-11.21,9-17.34t26.42-6.12h11V62.61q0-5.75-3.32-8.93t-9.81-3.17a23.26,23.26,0,0,0-6.57.85,17.22,17.22,0,0,0-4.65,2l-1.4,8.56H533.87l.07-17.71a60.47,60.47,0,0,1,13.54-6.71,49.11,49.11,0,0,1,16.64-2.73q14.83,0,24.09,7.27t9.26,20.7v33q0,1.84,0,3.47a24.65,24.65,0,0,0,.26,3.1l6.57.89v12.91ZM560.8,101.72a18.67,18.67,0,0,0,8.85-2.1,17.09,17.09,0,0,0,6.2-5.28V82.17h-11q-6.86,0-10.4,3.21a10,10,0,0,0-3.54,7.71,8,8,0,0,0,2.62,6.35A10.68,10.68,0,0,0,560.8,101.72Z"/><path class="cls-2" d="M614.77,103.19,625.1,101V51.47l-11.44-2.21v-13h31.51l1,11.66a25.13,25.13,0,0,1,7.23-9.67,16.16,16.16,0,0,1,10.26-3.47,26.49,26.49,0,0,1,3.58.26,22.15,22.15,0,0,1,3.14.63L668,55.31l-8.85-.22a15.1,15.1,0,0,0-7.82,1.84,11.92,11.92,0,0,0-4.72,5.24V101L657,103.19v12.91H614.77Z"/><path class="cls-2" d="M676,14V1h33V67.7h4.8l12.4-17.49-7-1v-13H758.4v13L749,51.4,734.56,71.17l20.14,30.33,8.19,1.7v12.91H726V103.19l4.43-.74L718.18,82.68H709V101l9.3,2.21v12.91H677.08V103.19l10.4-2.21V16.2Z"/><path class="cls-2" d="M810.16,117.66q-17.27,0-27.6-11.07T772.23,78.48v-3q0-17.78,9.78-29.29t26.23-11.44q16.16,0,25.09,9.74t8.93,26.34V82.61H794.59l-.15.44a20.83,20.83,0,0,0,5.28,13q4.68,5.09,12.73,5.09a41.45,41.45,0,0,0,11.88-1.44,54.62,54.62,0,0,0,10.33-4.54l5.83,13.28a42.39,42.39,0,0,1-12.8,6.57A54.49,54.49,0,0,1,810.16,117.66ZM808.24,51.4A11.22,11.22,0,0,0,798.79,56q-3.47,4.58-4.28,12l.22.37h26.42V66.45q0-6.86-3.21-11T808.24,51.4Z"/><path class="cls-2" d="M885.75,16.72V36.27h14V51.4h-14V92.05q0,4.65,1.92,6.64a6.83,6.83,0,0,0,5.17,2,35.4,35.4,0,0,0,3.87-.18q1.66-.18,3.73-.63l1.84,15.57a51.78,51.78,0,0,1-7.16,1.66,49.79,49.79,0,0,1-7.67.55q-11.14,0-17.16-6.12t-6-19.41V51.4H852.55V36.27h11.73V16.72Z"/></g></g></svg>