<?xml version="1.0" encoding="utf-8"?>

<!DOCTYPE svg PUBLIC "-//W3C//DTD SVG 1.1//EN" "http://www.w3.org/Graphics/SVG/1.1/DTD/svg11.dtd">
<svg version="1.1" id="Layer_1" xmlns="http://www.w3.org/2000/svg" xmlns:xlink="http://www.w3.org/1999/xlink" x="0px" y="0px"
	 viewBox="0 0 446 508" enable-background="new 0 0 446 508" xml:space="preserve">
<g>
	<path style="fill:#b5d7dc" d="M125.15,13.06c3.14-3.91,7.51-7.87,12.78-7.82c4.44,2.17,5.72,7.53,7.17,11.85c1.67,7.36,2.56,15.78-1.55,22.54
		c-1.29,2.51-3.14,4.65-5.24,6.52c6.06,1.36,12.96,7,10.58,13.89c-2.11,6.6-4.38,14.53-11,17.91c-6.93,1.08-11.67-5.75-18.09-7.08
		c1.85,6.48,6.88,11.65,8.32,18.32c-4.31-4.58-5.92-11.14-10.08-15.9c-3.66-0.56-2.99,3.93-2.31,6.16
		c1.41,3.91,0.24,8.86-3.57,10.95c-5.31,2.72-11.65,1.77-17.13,0.07c-5.75-1.78-11.04-7.12-10.21-13.54
		c0.14-2.71,3.47-6.86,0.15-8.55c-3.26,1.73-5.5,5.81-9.43,5.95c-5.71-2.08-10.16-6.45-15.11-9.83c-4.01-3.28-8.42-7.08-9.48-12.41
		c-0.69-3.17,1.96-5.95,4.9-6.55c8.61-2.04,17.53-0.32,26.02,1.55c6.93,1.66,13.77,3.83,20.32,6.64c1.43,0.63,3,0.7,4.53,0.87
		c-0.78-1.57-1.28-3.46-2.76-4.54c-7.62-3.33-12.38-10.52-17.85-16.42c-1.48-1.24-0.04-3.41,1.68-2.37
		c4.79,6.12,9.5,13.2,16.88,16.33c0.2-4.93-1.24-9.67-2.21-14.45c-0.95-3.77-1.38-7.69-2.87-11.31c0.49-0.61,0.97-1.23,1.46-1.85
		c2.21,1.6,2.13,4.48,2.57,6.9c1.22,7.02,2.62,14.01,3.24,21.12c0.18,2.2,2.86,2.61,4.41,3.55
		C113.85,38.17,116.55,24.07,125.15,13.06z"/>
	<path style="fill:#b5d7dc" d="M357.59,83.55c2.94-3.25,6.68-6.97,11.48-6.24c2.01-0.04,3.35,1.75,4.41,3.22c4.32,6.99,5.56,15.46,5.01,23.55
		c-0.56,5.85-4.3,10.72-8.21,14.85c6.69,0.13,13.86,6.87,11.2,13.85c-1.91,6.41-4.35,13.52-10.19,17.38
		c-7.09,2.01-12.61-4.4-18.71-6.82c-0.78,2.26,1.06,4.15,1.92,6.07c2,3.97,4.81,7.75,5.5,12.21c-3.59-4.79-5.89-10.46-9.57-15.2
		c-1.68-2.14-3.74,0.54-3.27,2.44c0.37,4.12,2.09,8.85-0.79,12.49c-3.48,4.21-9.46,4.17-14.43,3.82c-5.58-1.31-11.69-3.37-14.7-8.66
		c-1.98-4.29-0.67-9.1,0.59-13.39c-0.19-0.33-0.57-1-0.76-1.33c-4.24-0.05-6.24,6.89-11.13,5.56c-4.41-2.17-8.29-5.22-12.36-7.94
		c-4.74-3.22-9.69-6.93-11.85-12.45c-1.3-3.3,0.16-7.38,3.79-8.25c17.47-3.58,34.52,3.26,50.82,8.67c0.31-0.29,0.91-0.88,1.22-1.17
		c-0.66-1.22-1.23-2.51-2.07-3.61c-6.42-2.84-10.99-8.4-15.73-13.38c-1.42-1.67-3.39-3.23-3.4-5.64c0.62,0.14,1.86,0.42,2.48,0.56
		c4.91,6.17,9.96,12.52,16.92,16.52c0.32-9.45-3.59-18.35-4.63-27.65c0.61,0.08,1.82,0.24,2.43,0.33c1.06,2.74,1.23,5.72,1.8,8.58
		c0.96,6.6,2.66,13.1,3.04,19.78c1.11,1.51,2.93,2.21,4.77,1.84c0.15-1.99,0.25-3.99,0.61-5.95
		C346.35,105.6,349.52,93.15,357.59,83.55z"/>
	<path style="fill:#b5d7dc" class="fill" d="M197.81,153c3.02-1.96,6.71-1.67,10.13-2.16c1.98-0.58,3.29,1.56,3.33,3.28c0.3,7.94,0.07,15.94-1.27,23.78
		c-1.08,4.29-1.93,8.65-2.22,13.07c0.41,9.43,2.6,18.85,1.35,28.31c-0.81,4.09-3.77,7.35-7.3,9.38c-2.37,1.17-3.43,3.89-3.29,6.42
		c0.12,7.98-0.08,15.97,0.67,23.93c0.38,2.09-0.75,5.75,1.68,6.74c5.1-0.13,10.22-0.5,15.31-0.01c10.57,1.31,20.96,5.88,28.34,13.69
		c15.5,16.91,28.89,35.63,41.05,55.05c5.73,9.83,11.6,19.67,15.66,30.34c2.25,5.38,3.03,11.2,4.45,16.83
		c2.15,8.6,3.23,17.45,2.97,26.32c-0.14,6.7,0.01,14.31,4.89,19.5c5.95,6.39,15.06,7.8,23.32,8.64c9.02,0.13,18.06,1.06,27.06,0.16
		c9.03-0.76,18.03-1.92,27.07-2.47c9.65-0.13,18.7,5.01,24.9,12.17c5.72,6.63,8.28,15.34,9.35,23.88c0.2,4.9,0.58,9.97-1.23,14.64
		c3.83,2.09,7.12,6.09,6.7,10.66c-1.02,2.68-2.68,5.88-5.83,6.32c-5.38,0.44-10.93-0.29-15.8-2.71c-5.72-2.85-11.81-5.84-15.51-11.3
		c-4.77-6-7.37-13.29-11.34-19.78c-1.95-3.07-4.48-6.61-8.42-6.93c-11.73-0.19-23.34-2.09-34.99-3.29
		c-11.68-1.21-23.21-3.93-34.95-4.22c-3.99,1.72-7.26,4.89-11.38,6.46c-7.75,3.05-14.38,8.57-22.53,10.64
		c-10.65,3.23-21.89,3.43-32.93,3.27c-6.32-0.17-12.73,0.15-18.92-1.38c-3.61-0.93-7.65-1.35-10.39-4.12
		c-3.77-3.77-9.8-1.33-13.66,1.09c-3.19,2.33-8.26,3.78-10.9-0.1c-2.89,1.08-5.89,2.99-9.07,1.79c-4.05-1.53-5.48-6.04-6.41-9.85
		c1.01-7.76,7.52-12.83,13.58-16.85c1.53-0.99,0.13-2.8-0.57-3.84c-6.37-8.98-12.33-18.24-19.17-26.88
		c-5.63-6.97-10.36-14.87-17.51-20.46c-2.87-2.31-7.18-3.83-10.58-1.75c-4.81,3.43-7.44,8.93-10.22,13.96
		c-7.78,15.3-14.57,31.1-22.9,46.13c-2.68,4.3-4.96,8.98-8.61,12.58c-5.05,3.86-11.58,5.08-17.75,5.79
		c-8.93,1.27-17.97,0.81-26.95,0.79c-3.29-0.13-7.43-0.22-9.35-3.38c-0.6-2.61,2.25-4.16,3.81-5.75c5.64-4.11,12.01-8.99,19.45-7.66
		c7.06,1.51,14.07-4.68,14.67-11.6c1.27-12.72,4.75-25.14,9.59-36.95c5.88-13.24,7.73-27.93,7.24-42.32
		c-0.4-5.99-2.03-11.81-2.77-17.76c-0.08-9.12-1.16-18.73,3.18-27.15c-5.11-6.13-11.13-11.41-16.91-16.89
		c-5.27-4.4-10.37-9.31-16.82-11.95c-4.4-1.8-9.2-2.85-13.97-2.41c-2.77,0.39-5.43,1.87-8.29,1.38c-2.01-0.35-3.28-2.02-4.62-3.38
		c-3.21-0.29-6.97-1.96-7.28-5.6c0.26-3.08-3.18-5.06-2.13-8.26c2.27-7.58,10.77-11.82,18.24-12.16c12.65-0.35,26.28-1.11,37.6,5.6
		c7.2,5.04,17.69,4.52,24.19-1.49c6.83-6.26,10.47-15.28,12.85-24.05c-4.85-1.38-9.03-5.54-9.11-10.77
		c-0.05-8.75,0.54-17.49,0.24-26.23c-0.03-5.23-4.4-9.44-3.67-14.81c-0.16-3.78,4.11-5.13,5.35-8.29c1.7-3.49,2.88-7.84,6.85-9.45
		c4.51-1.29,9.41-0.5,13.72,1.23c4-2.94,8.85-4.64,13.82-4.84c10.88-0.59,22.33,0.12,32.1,5.41c1.62,0.5,3.44,2.18,5.13,1.32
		C185.13,165.19,189.84,157.17,197.81,153 M137.19,174.59c7.04,1.2,14.24,0.83,21.35,0.79c1.09-4.35-3.95-6.45-7.52-6.2
		C145.82,168.65,140.7,170.77,137.19,174.59 M106.46,187.28c0.87,0.04,2.62,0.12,3.49,0.16c0.88-1.68,1.63-4.4,4.12-3.91
		c5.78,3.17,10.59,7.82,16.07,11.46c0.87,0.61,1.85,0.92,2.94,0.91c0.13-0.71,0.37-2.13,0.49-2.84c-7.47-3.13-12.62-10.31-20.6-12.4
		C109.49,181.21,107.43,184.12,106.46,187.28z"/>
	<path fill="#FFFFFF" d="M137.19,174.59c3.51-3.82,8.63-5.94,13.83-5.41c3.57-0.25,8.61,1.85,7.52,6.2
		C151.43,175.42,144.23,175.79,137.19,174.59z"/>
	<path fill="#FFFFFF" d="M106.46,187.28c0.97-3.16,3.03-6.07,6.51-6.62c7.98,2.09,13.13,9.27,20.6,12.4
		c-0.12,0.71-0.36,2.13-0.49,2.84c-1.09,0.01-2.07-0.3-2.94-0.91c-5.48-3.64-10.29-8.29-16.07-11.46c-2.49-0.49-3.24,2.23-4.12,3.91
		C109.08,187.4,107.33,187.32,106.46,187.28z"/>
</g>
</svg>
